# 3ds Max Wavefront OBJ Exporter v0.97b - (c)2007 guruware
# File Created: 17.05.2017 17:20:50

#
# object Cylinder002
#

v  7.002203465 0.000000000 -0.000000000
v  3.501101255 0.000000000 -6.064086437
v  -3.501102209 0.000000000 -6.064085960
v  -7.002203465 0.000000000 0.000000612
v  -3.501101017 0.000000000 6.064086437
v  3.501101017 0.000000000 6.064086437
v  9.237832069 626.588134766 -0.000000000
v  4.618915558 626.588134766 -8.000199318
v  -4.618916512 626.588134766 -8.000199318
v  -9.237832069 626.588134766 -0.000000000
v  -4.618915081 626.588134766 8.000199318
v  4.618915081 626.588134766 8.000199318
v  7.002203465 547.179016113 -0.000000000
v  7.002203465 529.234375000 -0.000000000
v  3.501101255 529.234375000 -6.064086437
v  3.501101255 542.692565918 -6.064086437
v  -3.501102209 529.234375000 -6.064086437
v  -3.501102209 542.692565918 -6.064086437
v  -7.002203465 529.234375000 -0.000000000
v  -7.002203465 547.179016113 -0.000000000
v  -3.501101017 529.234375000 6.064086437
v  -3.501101017 556.164916992 6.064086437
v  3.501101017 529.234375000 6.064086437
v  3.501101017 556.164916992 6.064086437
v  -3.501101017 563.619873047 10.345487595
v  -3.501101017 549.223022461 12.902492523
v  3.501101017 549.223022461 12.902492523
v  3.501101017 563.619873047 10.345487595
v  -3.501101017 598.315307617 37.474098206
v  -3.501101017 591.292480469 40.995391846
v  3.501101017 591.292480469 40.995391846
v  3.501101017 598.315307617 37.474098206
v  -4.853270054 617.448852539 80.065551758
v  -4.853270054 604.749084473 79.425712585
v  4.853270054 604.749084473 79.425712585
v  4.853270054 617.448852539 80.065551758
v  -4.190816402 620.475585938 118.265167236
v  -4.190816402 610.833801270 118.265167236
v  4.190816402 610.833801270 118.265167236
v  4.190816402 620.475585938 118.265167236
v  0.000047305 623.320007324 118.915130615
v  0.000046576 617.663818359 90.529289246
v  -11.792429924 617.663818359 98.843292236
v  -16.677032471 617.663818359 118.915130615
v  -11.792427063 617.663818359 138.986953735
v  0.000047504 617.663818359 147.300964355
v  11.792523384 617.663818359 138.986953735
v  16.677125931 617.663818359 118.915138245
v  11.792531967 617.663818359 98.843315125
v  0.000046274 604.008483887 78.771484375
v  -16.677032471 604.008483887 90.529289246
v  -23.584905624 604.008483887 118.915130615
v  -16.677028656 604.008483887 147.300964355
v  0.000047586 604.008483887 159.058761597
v  16.677125931 604.008483887 147.300964355
v  23.585000992 604.008483887 118.915138245
v  16.677137375 604.008483887 90.529289246
v  0.000046274 595.665161133 78.771484375
v  -16.677032471 595.665161133 90.529289246
v  -23.584905624 595.665161133 118.915130615
v  -16.677028656 595.665161133 147.300964355
v  0.000047586 595.665161133 159.058761597
v  16.677125931 595.665161133 147.300964355
v  23.585000992 595.665161133 118.915138245
v  16.677137375 595.665161133 90.529289246
# 65 vertices

vn 0.396202892 -0.609994233 0.686243594
vn -0.396143109 -0.610036433 0.686240673
vn -0.792438209 -0.609952152 0.000050375
vn -0.396202952 -0.609994292 -0.686243534
vn 0.396202862 -0.609994292 -0.686243594
vn 0.792405784 -0.609994292 0.000000035
vn 0.500000000 0.000000000 -0.866025388
vn 0.502028883 -0.010950056 -0.864781499
vn 0.999881804 -0.012641277 0.008749501
vn 1.000000000 0.000000000 0.000000044
vn -0.500000060 -0.000000000 -0.866025388
vn -0.502028942 -0.010950054 -0.864781499
vn 0.502028883 -0.010950056 -0.864781499
vn 0.500000000 0.000000000 -0.866025388
vn -1.000000000 0.000000000 0.000000088
vn -0.999881804 -0.012641277 0.008749555
vn -0.502028942 -0.010950054 -0.864781499
vn -0.500000060 -0.000000000 -0.866025388
vn -0.548034608 -0.091351874 0.831452310
vn -0.936077118 0.117920272 0.331442893
vn -0.999881804 -0.012641277 0.008749555
vn -1.000000000 0.000000000 0.000000088
vn 1.000000000 0.000000000 0.000000044
vn 0.999881804 -0.012641277 0.008749501
vn 0.936077118 0.117920272 0.331442893
vn 0.548034608 -0.091351874 0.831452310
vn 0.400728941 0.598051250 0.694082856
vn 0.800446033 0.599404812 0.000000018
vn 0.400010705 0.599971533 -0.692838788
vn -0.400011539 0.599970996 -0.692838788
vn -0.800446451 0.599404216 -0.000000549
vn -0.400728941 0.598051250 0.694082856
vn 0.502028883 -0.010950056 -0.864781499
vn 0.400010705 0.599971533 -0.692838788
vn 0.800446033 0.599404812 0.000000018
vn 0.999881804 -0.012641277 0.008749501
vn 1.000000000 0.000000000 0.000000044
vn 0.792405784 -0.609994292 0.000000035
vn 0.396202862 -0.609994292 -0.686243594
vn 0.500000000 0.000000000 -0.866025388
vn -0.502028942 -0.010950054 -0.864781499
vn -0.400011539 0.599970996 -0.692838788
vn 0.400010705 0.599971533 -0.692838788
vn 0.502028883 -0.010950056 -0.864781499
vn 0.500000000 0.000000000 -0.866025388
vn 0.396202862 -0.609994292 -0.686243594
vn -0.396202952 -0.609994292 -0.686243534
vn -0.500000060 -0.000000000 -0.866025388
vn -0.999881804 -0.012641277 0.008749555
vn -0.800446451 0.599404216 -0.000000549
vn -0.400011539 0.599970996 -0.692838788
vn -0.502028942 -0.010950054 -0.864781499
vn -0.500000060 -0.000000000 -0.866025388
vn -0.396202952 -0.609994292 -0.686243534
vn -0.792438209 -0.609952152 0.000050375
vn -1.000000000 0.000000000 0.000000088
vn -0.936077118 0.117920272 0.331442893
vn -0.400728941 0.598051250 0.694082856
vn -0.800446451 0.599404216 -0.000000549
vn -0.999881804 -0.012641277 0.008749555
vn -1.000000000 0.000000000 0.000000088
vn -0.792438209 -0.609952152 0.000050375
vn -0.396143109 -0.610036433 0.686240673
vn -0.548034608 -0.091351874 0.831452310
vn 0.936077118 0.117920272 0.331442893
vn 0.400728941 0.598051250 0.694082856
vn -0.400728941 0.598051250 0.694082856
vn -0.936077118 0.117920272 0.331442893
vn -0.548034608 -0.091351874 0.831452310
vn -0.396143109 -0.610036433 0.686240673
vn 0.396202892 -0.609994233 0.686243594
vn 0.548034608 -0.091351874 0.831452310
vn 0.999881804 -0.012641277 0.008749501
vn 0.800446033 0.599404812 0.000000018
vn 0.400728941 0.598051250 0.694082856
vn 0.936077118 0.117920272 0.331442893
vn 0.548034608 -0.091351874 0.831452310
vn 0.396202892 -0.609994233 0.686243594
vn 0.792405784 -0.609994292 0.000000035
vn 1.000000000 0.000000000 0.000000044
vn -0.936077118 0.117920272 0.331442893
vn -0.548034608 -0.091351874 0.831452310
vn -0.737415254 -0.299367696 0.605473101
vn -0.691490173 0.403387785 -0.599265933
vn -0.548034608 -0.091351874 0.831452310
vn 0.548034608 -0.091351874 0.831452310
vn 0.737415254 -0.299367696 0.605473101
vn -0.737415254 -0.299367696 0.605473101
vn 0.548034608 -0.091351874 0.831452310
vn 0.936077118 0.117920272 0.331442893
vn 0.691490173 0.403387785 -0.599265933
vn 0.737415254 -0.299367696 0.605473101
vn 0.936077118 0.117920272 0.331442893
vn -0.936077118 0.117920272 0.331442893
vn -0.691490173 0.403387785 -0.599265933
vn 0.691490173 0.403387785 -0.599265933
vn -0.691490173 0.403387785 -0.599265933
vn -0.737415254 -0.299367696 0.605473101
vn -0.783709109 -0.499208570 0.369582027
vn -0.652230322 0.591077030 -0.474577218
vn -0.737415254 -0.299367696 0.605473101
vn 0.737415254 -0.299367696 0.605473101
vn 0.783709109 -0.499208570 0.369582027
vn -0.783709109 -0.499208570 0.369582027
vn 0.737415254 -0.299367696 0.605473101
vn 0.691490173 0.403387785 -0.599265933
vn 0.652230322 0.591077030 -0.474577218
vn 0.783709109 -0.499208570 0.369582027
vn 0.691490173 0.403387785 -0.599265933
vn -0.691490173 0.403387785 -0.599265933
vn -0.652230322 0.591077030 -0.474577218
vn 0.652230322 0.591077030 -0.474577218
vn -0.652230322 0.591077030 -0.474577218
vn -0.783709109 -0.499208570 0.369582027
vn -0.734837949 -0.660217285 0.155326575
vn -0.675777495 0.713844776 -0.183712885
vn -0.783709109 -0.499208570 0.369582027
vn 0.783709109 -0.499208570 0.369582027
vn 0.734837890 -0.660217285 0.155326575
vn -0.734837949 -0.660217285 0.155326575
vn 0.783709109 -0.499208570 0.369582027
vn 0.652230322 0.591077030 -0.474577218
vn 0.675777495 0.713844776 -0.183712885
vn 0.734837890 -0.660217285 0.155326575
vn 0.652230322 0.591077030 -0.474577218
vn -0.652230322 0.591077030 -0.474577218
vn -0.675777495 0.713844776 -0.183712885
vn 0.675777495 0.713844776 -0.183712885
vn -0.675777495 0.713844776 -0.183712885
vn -0.734837949 -0.660217285 0.155326575
vn -0.734950006 -0.667921185 0.117174178
vn -0.685017109 0.727090240 -0.045731254
vn -0.734837949 -0.660217285 0.155326575
vn 0.734837890 -0.660217285 0.155326575
vn 0.734950006 -0.667921185 0.117174178
vn -0.734950006 -0.667921185 0.117174178
vn 0.734837890 -0.660217285 0.155326575
vn 0.675777495 0.713844776 -0.183712885
vn 0.685017109 0.727090240 -0.045731254
vn 0.734950006 -0.667921185 0.117174178
vn 0.675777495 0.713844776 -0.183712885
vn -0.675777495 0.713844776 -0.183712885
vn -0.685017109 0.727090240 -0.045731254
vn 0.685017109 0.727090240 -0.045731254
vn 0.000000022 1.000000000 0.000000035
vn 0.000000350 0.810406208 -0.585868418
vn -0.546884179 0.765435159 -0.339155912
vn 0.000000022 1.000000000 0.000000035
vn -0.546884179 0.765435159 -0.339155912
vn -0.685744822 0.727842033 0.000000103
vn 0.000000022 1.000000000 0.000000035
vn -0.685744822 0.727842033 0.000000103
vn -0.546884179 0.765435159 0.339155793
vn 0.000000022 1.000000000 0.000000035
vn -0.546884179 0.765435159 0.339155793
vn 0.000000012 0.810406089 0.585868597
vn 0.000000022 1.000000000 0.000000035
vn 0.000000012 0.810406089 0.585868597
vn 0.546884179 0.765435159 0.339155793
vn 0.000000022 1.000000000 0.000000035
vn 0.546884179 0.765435159 0.339155793
vn 0.685744762 0.727842093 0.000000173
vn 0.000000022 1.000000000 0.000000035
vn 0.685744762 0.727842093 0.000000173
vn 0.546884298 0.765435278 -0.339155465
vn 0.000000022 1.000000000 0.000000035
vn 0.546884298 0.765435278 -0.339155465
vn 0.000000350 0.810406208 -0.585868418
vn 0.000000350 0.810406208 -0.585868418
vn -0.000000136 0.312167704 -0.950026989
vn -0.785000265 0.268950433 -0.558068335
vn -0.546884179 0.765435159 -0.339155912
vn -0.546884179 0.765435159 -0.339155912
vn -0.785000265 0.268950433 -0.558068335
vn -0.974470854 0.224513963 0.000000078
vn -0.685744822 0.727842033 0.000000103
vn -0.685744822 0.727842033 0.000000103
vn -0.974470854 0.224513963 0.000000078
vn -0.785000145 0.268950492 0.558068454
vn -0.546884179 0.765435159 0.339155793
vn -0.546884179 0.765435159 0.339155793
vn -0.785000145 0.268950492 0.558068454
vn 0.000000000 0.312167555 0.950027049
vn 0.000000012 0.810406089 0.585868597
vn 0.000000012 0.810406089 0.585868597
vn 0.000000000 0.312167555 0.950027049
vn 0.785000145 0.268950552 0.558068454
vn 0.546884179 0.765435159 0.339155793
vn 0.546884179 0.765435159 0.339155793
vn 0.785000145 0.268950552 0.558068454
vn 0.974467933 0.224526733 0.000014466
vn 0.685744762 0.727842093 0.000000173
vn 0.685744762 0.727842093 0.000000173
vn 0.974467933 0.224526733 0.000014466
vn 0.784982741 0.268966317 -0.558085322
vn 0.546884298 0.765435278 -0.339155465
vn 0.546884298 0.765435278 -0.339155465
vn 0.784982741 0.268966317 -0.558085322
vn -0.000000136 0.312167704 -0.950026989
vn 0.000000350 0.810406208 -0.585868418
vn -0.785000265 0.268950433 -0.558068335
vn -0.000000136 0.312167704 -0.950026989
vn -0.000000162 0.000000000 -1.000000000
vn -0.826626480 0.000000000 -0.562750995
vn -0.974470854 0.224513963 0.000000078
vn -0.785000265 0.268950433 -0.558068335
vn -0.826626480 0.000000000 -0.562750995
vn -1.000000000 0.000000000 0.000000088
vn -0.785000145 0.268950492 0.558068454
vn -0.974470854 0.224513963 0.000000078
vn -1.000000000 0.000000000 0.000000088
vn -0.826626360 0.000000000 0.562751174
vn 0.000000000 0.312167555 0.950027049
vn -0.785000145 0.268950492 0.558068454
vn -0.826626360 0.000000000 0.562751174
vn 0.000000000 0.000000000 1.000000000
vn 0.785000145 0.268950552 0.558068454
vn 0.000000000 0.312167555 0.950027049
vn 0.000000000 0.000000000 1.000000000
vn 0.826626360 0.000000000 0.562751174
vn 0.974467933 0.224526733 0.000014466
vn 0.785000145 0.268950552 0.558068454
vn 0.826626360 0.000000000 0.562751174
vn 1.000000000 0.000000000 0.000027028
vn 0.784982741 0.268966317 -0.558085322
vn 0.974467933 0.224526733 0.000014466
vn 1.000000000 0.000000000 0.000027028
vn 0.826603293 0.000000000 -0.562785089
vn -0.000000136 0.312167704 -0.950026989
vn 0.784982741 0.268966317 -0.558085322
vn 0.826603293 0.000000000 -0.562785089
vn -0.000000162 0.000000000 -1.000000000
# 232 vertex normals

vt 0.166010559 0.250689149 0.000000000
vt 0.162760079 0.250689149 0.000000000
vt 0.261577249 0.236586928 0.000000000
vt 0.095245719 0.232863665 0.000000000
vt 0.234091818 0.237717986 0.000000000
vt 0.249692202 0.028360724 0.000000000
vt 0.209053874 0.028360724 0.000000000
vt 0.211197972 0.032074571 0.000000000
vt 0.261603892 0.243571758 0.000000000
vt 0.095321536 0.242061377 0.000000000
vt 0.108740687 0.057595849 0.000000000
vt 0.107841849 0.090290546 0.000000000
vt 0.257969797 0.243585706 0.000000000
vt 0.257942975 0.236600876 0.000000000
vt 0.161134899 0.247874260 0.000000000
vt 0.162760079 0.245059252 0.000000000
vt 0.166010559 0.245059252 0.000000000
vt 0.167635798 0.247874260 0.000000000
vt 0.209053874 0.035788298 0.000000000
vt 0.204765618 0.035788298 0.000000000
vt 0.202621520 0.032074571 0.000000000
vt 0.225930810 0.232865691 0.000000000
vt 0.225934923 0.239729643 0.000000000
vt 0.222370803 0.242063761 0.000000000
vt 0.222359896 0.232866049 0.000000000
vt 0.262349486 0.287121296 0.000000000
vt 0.257555187 0.287139654 0.000000000
vt 0.257915616 0.028374791 0.000000000
vt 0.261549950 0.028360724 0.000000000
vt 0.091735661 0.239760399 0.000000000
vt 0.091675162 0.232897520 0.000000000
vt 0.253347337 0.028619409 0.000000000
vt 0.103557706 0.090104699 0.000000000
vt 0.237746894 0.237976551 0.000000000
vt 0.105493307 0.057455063 0.000000000
vt 0.178191781 0.089463949 0.000000000
vt 0.236966312 0.249003768 0.000000000
vt 0.233311415 0.248744965 0.000000000
vt 0.180519223 0.091732860 0.000000000
vt 0.200033963 0.054486394 0.000000000
vt 0.140329123 0.028360724 0.000000000
vt 0.140820920 0.031573772 0.000000000
vt 0.200607777 0.057685733 0.000000000
vt 0.179384589 0.062130094 0.000000000
vt 0.122232020 0.035054088 0.000000000
vt 0.121550262 0.030600190 0.000000000
vt 0.178589165 0.057695031 0.000000000
vt 0.161821783 0.064967632 0.000000000
vt 0.104146361 0.037511349 0.000000000
vt 0.103557706 0.033665419 0.000000000
vt 0.161134899 0.061138034 0.000000000
vt 0.188374996 0.773764074 0.000000000
vt 0.201684237 0.773764074 0.000000000
vt 0.197781503 0.779400051 0.000000000
vt 0.188374996 0.781804264 0.000000000
vt 0.178968549 0.779400051 0.000000000
vt 0.175065815 0.773764074 0.000000000
vt 0.178968549 0.768127978 0.000000000
vt 0.188374996 0.765723765 0.000000000
vt 0.258099616 0.941649497 0.000000000
vt 0.266438246 0.940988362 0.000000000
vt 0.197781444 0.768127978 0.000000000
vt 0.266438246 0.961274445 0.000000000
vt 0.197725832 0.937399566 0.000000000
vt 0.194048941 0.929886281 0.000000000
vt 0.263581812 0.950019538 0.000000000
vt 0.175065815 0.936933339 0.000000000
vt 0.175975144 0.929226816 0.000000000
vt 0.256079793 0.948035538 0.000000000
vt 0.258936226 0.963258564 0.000000000
vt 0.159218073 0.939590037 0.000000000
vt 0.256079793 0.954227388 0.000000000
vt 0.203498065 0.929226816 0.000000000
vt 0.204407394 0.936933339 0.000000000
vt 0.121358812 0.749776185 0.000000000
vt 0.185424268 0.929886281 0.000000000
vt 0.181747377 0.937399566 0.000000000
vt 0.205892146 0.765723765 0.000000000
vt 0.215364158 0.765723765 0.000000000
vt 0.158286750 0.742140353 0.000000000
vt 0.148814559 0.742140353 0.000000000
vt 0.148814559 0.738267362 0.000000000
vt 0.215364218 0.769596756 0.000000000
vt 0.205892146 0.769596756 0.000000000
vt 0.218745172 0.246661544 0.000000000
vt 0.218792617 0.232862353 0.000000000
vt 0.227234900 0.282702208 0.000000000
vt 0.222525716 0.282783151 0.000000000
vt 0.222879529 0.028362274 0.000000000
vt 0.226449013 0.028363705 0.000000000
vt 0.217794895 0.282733560 0.000000000
vt 0.219312549 0.028360724 0.000000000
vt 0.216537654 0.250473261 0.000000000
vt 0.215253770 0.243092656 0.000000000
vt 0.202575505 0.268198371 0.000000000
vt 0.200784564 0.264593959 0.000000000
vt 0.180712044 0.277925730 0.000000000
vt 0.181061864 0.271420956 0.000000000
vt 0.161134899 0.279409528 0.000000000
vt 0.161151707 0.274470210 0.000000000
vt 0.098812699 0.232825756 0.000000000
vt 0.098990321 0.246625304 0.000000000
vt 0.095547616 0.282781720 0.000000000
vt 0.090837777 0.282745004 0.000000000
vt 0.090051889 0.028432727 0.000000000
vt 0.093618274 0.028396726 0.000000000
vt 0.100277901 0.282688022 0.000000000
vt 0.097186983 0.028360724 0.000000000
vt 0.102448821 0.243022919 0.000000000
vt 0.101233125 0.250417471 0.000000000
vt 0.117122114 0.264397502 0.000000000
vt 0.115363538 0.268019795 0.000000000
vt 0.136917114 0.271048188 0.000000000
vt 0.137326241 0.277553201 0.000000000
vt 0.156865358 0.273918390 0.000000000
vt 0.156926990 0.278860092 0.000000000
vt 0.235097587 0.275408030 0.000000000
vt 0.231442750 0.275149345 0.000000000
vt 0.204765618 0.028360724 0.000000000
vt 0.117663682 0.742738426 0.000000000
vt 0.131026089 0.742100775 0.000000000
vt 0.131024063 0.749048531 0.000000000
vt 0.144441068 0.742738426 0.000000000
vt 0.140719116 0.749795258 0.000000000
vt 0.117488623 0.738880575 0.000000000
vt 0.130996466 0.738267362 0.000000000
vt 0.144606709 0.738753974 0.000000000
vt 0.162913203 0.946627915 0.000000000
vt 0.149550855 0.947265565 0.000000000
vt 0.149552822 0.940317690 0.000000000
vt 0.136135817 0.946627915 0.000000000
vt 0.139857769 0.939570844 0.000000000
vt 0.163088322 0.950485647 0.000000000
vt 0.149580419 0.951098740 0.000000000
vt 0.135970175 0.950612247 0.000000000
vt 0.177733600 0.094590545 0.000000000
vt 0.175406098 0.092321634 0.000000000
vt 0.163462341 0.109230042 0.000000000
vt 0.161134899 0.106961012 0.000000000
vt 0.224836290 0.765723765 0.000000000
vt 0.224836290 0.769596756 0.000000000
vt 0.158286750 0.738267362 0.000000000
vt 0.167758822 0.742140353 0.000000000
vt 0.167758822 0.738267362 0.000000000
vt 0.264418483 0.954888523 0.000000000
# 145 texture coords

o Cylinder002
g Cylinder002
s off
f 6/1/1 5/2/2 4/15/3 3/16/4 2/17/5 1/18/6 
s 3
f 15/22/7 16/23/8 13/24/9 14/25/10 
f 17/3/11 18/9/12 16/13/13 15/14/14 
f 19/4/15 20/10/16 18/30/17 17/31/18 
f 21/101/19 22/102/20 20/10/21 19/4/22 
f 14/25/23 13/24/24 24/85/25 23/86/26 
s off
f 12/7/27 7/8/28 8/19/29 9/20/30 10/21/31 11/119/32 
s 1
f 16/23/33 8/87/34 7/88/35 13/24/36 
f 14/25/37 1/89/38 2/90/39 15/22/40 
f 18/9/41 9/26/42 8/27/43 16/13/44 
f 15/14/45 2/28/46 3/29/47 17/3/48 
f 20/10/49 10/103/50 9/104/51 18/30/52 
f 17/31/53 3/105/54 4/106/55 19/4/56 
f 22/102/57 11/107/58 10/103/59 20/10/60 
f 19/4/61 4/106/62 5/108/63 21/101/64 
f 24/11/65 12/12/66 11/33/67 22/35/68 
f 21/5/69 5/6/70 6/32/71 23/34/72 
f 13/24/73 7/88/74 12/91/75 24/85/76 
f 23/86/77 6/92/78 1/89/79 14/25/80 
s 3
f 22/102/81 21/101/82 26/109/83 25/110/84 
f 21/5/85 23/34/86 27/37/87 26/38/88 
f 23/86/89 24/85/90 28/93/91 27/94/92 
s 2
f 24/36/93 22/39/94 25/136/95 28/137/96 
s 3
f 25/110/97 26/109/98 30/111/99 29/112/100 
f 26/38/101 27/37/102 31/117/103 30/118/104 
f 27/94/105 28/93/106 32/95/107 31/96/108 
f 28/137/109 25/136/110 29/138/111 32/139/112 
f 29/112/113 30/111/114 34/113/115 33/114/116 
f 30/41/117 31/42/118 35/45/119 34/46/120 
f 31/96/121 32/95/122 36/97/123 35/98/124 
f 32/40/125 29/43/126 33/44/127 36/47/128 
f 33/114/129 34/113/130 38/115/131 37/116/132 
f 34/46/133 35/45/134 39/49/135 38/50/136 
f 35/98/137 36/97/138 40/99/139 39/100/140 
f 36/47/141 33/44/142 37/48/143 40/51/144 
s 1
f 41/52/145 42/53/146 43/54/147 
f 41/52/148 43/54/149 44/55/150 
f 41/52/151 44/55/152 45/56/153 
f 41/52/154 45/56/155 46/57/156 
f 41/52/157 46/57/158 47/58/159 
f 41/52/160 47/58/161 48/59/162 
f 41/52/163 48/59/164 49/62/165 
f 41/52/166 49/62/167 42/53/168 
f 42/60/169 50/61/170 51/66/171 43/69/172 
f 43/71/173 51/128/174 52/129/175 44/130/176 
f 44/130/177 52/129/178 53/131/179 45/132/180 
f 45/63/181 53/70/182 54/72/183 46/145/184 
f 46/64/185 54/65/186 55/73/187 47/74/188 
f 47/75/189 55/120/190 56/121/191 48/122/192 
f 48/122/193 56/121/194 57/123/195 49/124/196 
f 49/67/197 57/68/198 50/76/199 42/77/200 
f 51/78/201 50/79/202 58/83/203 59/84/204 
f 52/129/205 51/128/206 59/133/207 60/134/208 
f 53/131/209 52/129/210 60/134/211 61/135/212 
f 54/80/213 53/81/214 61/82/215 62/142/216 
f 55/143/217 54/80/218 62/142/219 63/144/220 
f 56/121/221 55/120/222 63/125/223 64/126/224 
f 57/123/225 56/121/226 64/126/227 65/127/228 
f 50/79/229 57/140/230 65/141/231 58/83/232 
# 51 polygons - 8 triangles

#
# object Object005
#

v  0.000048235 594.418212891 118.915130615
v  0.000046274 595.665161133 78.771484375
v  -16.677032471 595.665161133 90.529289246
v  -23.584905624 595.665161133 118.915130615
v  -16.677028656 595.665161133 147.300964355
v  0.000047586 595.665161133 159.058761597
v  16.677125931 595.665161133 147.300964355
v  23.585000992 595.665161133 118.915138245
v  16.677137375 595.665161133 90.529289246
# 9 vertices

vn -0.031713653 -0.999177754 -0.025260197
vn -0.000000003 -0.999517918 -0.031047180
vn -0.000000004 -1.000000000 0.000000006
vn -0.052796762 -0.998605251 0.000000003
vn -0.031713653 -0.999177754 -0.025260197
vn -0.000000004 -1.000000000 0.000000006
vn -0.031713657 -0.999177754 0.025260199
vn -0.052796762 -0.998605251 0.000000003
vn -0.000000004 -1.000000000 0.000000006
vn 0.000000000 -0.999517918 0.031047195
vn -0.031713657 -0.999177754 0.025260199
vn -0.000000004 -1.000000000 0.000000006
vn 0.031713657 -0.999177754 0.025260199
vn 0.000000000 -0.999517918 0.031047195
vn -0.000000004 -1.000000000 0.000000006
vn 0.052796759 -0.998605251 0.000000015
vn 0.031713657 -0.999177754 0.025260199
vn -0.000000004 -1.000000000 0.000000006
vn 0.031713646 -0.999177754 -0.025260184
vn 0.052796759 -0.998605251 0.000000015
vn -0.000000004 -1.000000000 0.000000006
vn -0.000000003 -0.999517918 -0.031047180
vn 0.031713646 -0.999177754 -0.025260184
vn -0.000000004 -1.000000000 0.000000006
# 24 vertex normals

vt 0.563411474 0.741225719 0.000000000
vt 0.582050920 0.741225719 0.000000000
vt 0.576591372 0.733478427 0.000000000
vt 0.563411474 0.730266929 0.000000000
vt 0.550231695 0.733478427 0.000000000
vt 0.544772148 0.741225719 0.000000000
vt 0.550231695 0.748973131 0.000000000
vt 0.563411474 0.752184749 0.000000000
vt 0.576591372 0.748973250 0.000000000
# 9 texture coords

o Object005
g Object005
s 2
f 68/148/233 67/147/234 66/146/235 
f 69/149/236 68/148/237 66/146/238 
f 70/150/239 69/149/240 66/146/241 
f 71/151/242 70/150/243 66/146/244 
f 72/152/245 71/151/246 66/146/247 
f 73/153/248 72/152/249 66/146/250 
f 74/154/251 73/153/252 66/146/253 
f 67/147/254 74/154/255 66/146/256 
# 0 polygons - 8 triangles

